Coordinates
version=1
nRows=20
nColumns=34
inDegrees=yes

Units are S.I. units (second, meters, Newtons, ...)
If the header above contains a line with 'inDegrees', this indicates whether rotational values are in degrees (yes) or radians (no).

endheader
time	pelvis_tilt	pelvis_list	pelvis_rotation	pelvis_tx	pelvis_ty	pelvis_tz	hip_flexion_r	hip_adduction_r	hip_rotation_r	knee_angle_r	ankle_angle_r	subtalar_angle_r	mtp_angle_r	hip_flexion_l	hip_adduction_l	hip_rotation_l	knee_angle_l	ankle_angle_l	subtalar_angle_l	mtp_angle_l	lumbar_extension	lumbar_bending	lumbar_rotation	arm_flex_r	arm_add_r	arm_rot_r	elbow_flex_r	pro_sup_r	arm_flex_l	arm_add_l	arm_rot_l	elbow_flex_l	pro_sup_l
      0.00000000	     -2.17310674	     -0.67233925	     -6.68802271	      1.65941431	      0.87561010	     -0.02887914	      0.99721762	     -4.26010445	     -4.29846418	      4.17439779	      2.50307749	    -12.22586617	      0.00000000	     -0.91946959	     -4.34708781	     -3.00891706	      4.26745775	      7.28066555	     -7.47161653	      0.00000000	     -7.05215890	      2.69174369	     -4.36064386	     12.34635673	     -8.53943179	     42.30654750	     79.24979091	     91.72217041	      3.35074454	     -5.29816107	     21.84731865	     75.07970066	     91.18289846
      0.01666670	     -3.38833784	     -0.51496223	     -6.66255074	      1.66028882	      0.87473143	     -0.02989953	      2.52567291	     -4.11850404	     -3.29979468	      4.57314966	      5.78839656	    -10.30485941	      0.00000000	      0.97522618	     -3.98349524	     -2.61911647	      4.20630364	      8.14942752	     -6.46910655	      0.00000000	     -4.68434829	      3.04055418	     -3.63330707	     10.41036478	     -8.64573844	     39.09267309	     79.22184176	     91.22046616	      3.49301243	     -5.46147483	     22.10026984	     73.74387355	     90.19227435
      0.03333330	     -3.24766013	      0.18848227	     -6.91471642	      1.65942361	      0.87482192	     -0.02919681	      2.25425372	     -4.89988810	     -3.11517621	      3.80774184	      5.94089900	    -10.16595661	      0.00000000	      0.71290574	     -3.30449117	     -2.87355479	      3.69689867	      7.82998743	     -6.61115489	      0.00000000	     -4.80004619	      1.96736521	     -2.52089012	      9.88286701	     -8.38857957	     37.72686536	     78.81608699	     91.49066849	      4.83873308	     -5.89799706	     23.08860135	     72.25865339	     88.87056534
      0.05000000	     -3.14406560	      0.63731290	     -6.86139959	      1.65905344	      0.87486969	     -0.02858804	      1.98652778	     -5.41618165	     -2.72570989	      3.30594341	      6.16300007	    -10.08529574	      0.00000000	      0.27649882	     -2.81199437	     -2.56689922	      3.05580445	      7.58591353	     -6.65964332	      0.00000000	     -4.72653578	      1.21206792	     -2.27772144	      9.61151469	     -8.45919597	     37.95577624	     78.83142398	     91.55686685	      5.05038042	     -6.32491027	     22.96534670	     72.15820657	     88.80490488
      0.06666670	     -2.36433059	      0.71002918	     -7.06315944	      1.65850483	      0.87552230	     -0.02846297	      0.99842971	     -5.53899405	     -2.09056578	      2.87812836	      6.18426408	    -10.47903549	      0.00000000	     -1.10505491	     -2.58405344	     -2.00041022	      2.02588783	      6.65175152	     -7.79587185	      0.00000000	     -5.84484455	      0.99658223	     -1.69613384	      9.87754792	     -8.71709673	     38.93528043	     79.43381465	     91.91247597	      5.80040657	     -6.38639854	     23.93421167	     71.91982518	     88.76258699
      0.08333330	     -2.32339493	      0.80547677	     -6.96413766	      1.65838866	      0.87548570	     -0.02880857	      0.88271115	     -5.61453537	     -1.93762359	      2.75677325	      6.28120768	    -10.51333532	      0.00000000	     -1.17110245	     -2.47434747	     -1.75067078	      1.93561304	      6.70106881	     -7.79466114	      0.00000000	     -5.74039722	      0.98472694	     -1.54492570	      9.83862421	     -8.46171729	     39.12990075	     79.58714198	     91.93980792	      5.92127140	     -6.39340939	     23.97111333	     71.95558251	     88.76688713
      0.10000000	     -1.77921246	      0.84142103	     -6.95764744	      1.65827567	      0.87619274	     -0.02891907	      0.11580676	     -5.71643533	     -1.33925541	      2.40714163	      6.11243766	    -11.61856169	      0.00000000	     -1.96466072	     -2.32112410	     -0.71265926	      1.54084043	      6.31671880	     -8.86679133	      0.00000000	     -6.54437011	      0.77291692	     -1.30688029	     10.07731812	     -9.06755335	     40.81861374	     81.15716536	     92.27372725	      6.70736560	     -6.67751593	     25.25473027	     71.89965035	     88.92493245
      0.11666670	     -1.77815038	      0.83615252	     -6.95791984	      1.65832837	      0.87621188	     -0.02876817	      0.11554872	     -5.72059591	     -1.33809790	      2.40659160	      6.11255989	    -11.61875076	      0.00000000	     -1.96495934	     -2.32012901	     -0.71073309	      1.54160110	      6.31619388	     -8.86631464	      0.00000000	     -6.54326892	      0.77333727	     -1.30664966	     10.07617113	     -9.06620959	     40.81989368	     81.15781533	     92.27388504	      6.70867100	     -6.67761937	     25.25477841	     71.90003765	     88.92497517
      0.13333330	     -1.39862766	      0.85102711	     -6.88509099	      1.65849869	      0.87623392	     -0.02859281	     -0.51271304	     -5.76595336	     -0.72243143	      2.05717008	      5.72825762	    -12.79765786	      0.00000000	     -2.46998271	     -2.25243183	      0.31567661	      1.42622769	      5.94763333	     -9.63064097	      0.00000000	     -6.91873135	      0.75113448	     -1.11895538	     10.07540725	     -9.35239835	     41.99929792	     82.21310155	     92.49966114	      7.23663971	     -6.96439484	     26.11196599	     71.79433602	     89.02920481
      0.15000000	     -1.40245993	      0.85750150	     -6.88459456	      1.65855442	      0.87589522	     -0.02849305	     -0.50741023	     -5.77907043	     -0.71854714	      2.05158619	      5.72889566	    -12.79994914	      0.00000000	     -2.48515797	     -2.27198645	      0.32071278	      1.43548720	      5.94412483	     -9.62995164	      0.00000000	     -6.91724281	      0.75346253	     -1.12056448	     10.07068022	     -9.35207042	     42.00273317	     82.21404989	     92.50018710	      7.24258686	     -6.96487234	     26.11189623	     71.79552792	     89.02924552
      0.16666670	     -1.36206389	      0.84589486	     -6.92635531	      1.65878484	      0.87598917	     -0.02843058	     -0.58667278	     -5.75648214	     -0.63711638	      1.98970332	      5.76528140	    -12.88927232	      0.00000000	     -2.53910984	     -2.30493238	      0.49947428	      1.52462822	      5.84327362	     -9.58872769	      0.00000000	     -6.89431880	      0.81862854	     -1.09310214	      9.91422012	     -9.37129561	     42.12311781	     82.24378766	     92.51262531	      7.30585638	     -7.05872629	     26.09966701	     71.78413358	     89.02814899
      0.18333330	     -1.03087968	      0.75416550	     -6.72846920	      1.65934606	      0.87660119	     -0.02882392	     -1.23623325	     -5.66445477	     -0.08597392	      1.60770580	      5.04493572	    -14.29001497	      0.00000000	     -3.03037584	     -2.37717505	      1.27445533	      1.30914544	      5.25173051	    -10.58056288	      0.00000000	     -7.33112720	      0.93247747	     -1.00968099	     10.00323895	     -9.89235462	     42.92096009	     83.05514327	     92.64248805	      7.65683015	     -7.16837946	     26.69961864	     71.39089596	     89.01472138
      0.20000000	     -1.04829275	      0.77629744	     -6.72009063	      1.65978863	      0.87651032	     -0.02892101	     -1.23909833	     -5.64399738	     -0.08368166	      1.60794261	      5.04727516	    -14.29319909	      0.00000000	     -3.04597750	     -2.37564782	      1.27483187	      1.31924563	      5.24719423	    -10.58088493	      0.00000000	     -7.33547513	      0.93515981	     -1.00584409	      9.99678225	     -9.89586336	     42.92317397	     83.05189895	     92.64268907	      7.65690260	     -7.17462151	     26.69785581	     71.38948742	     89.01431041
      0.21666670	     -1.04148812	      0.76883100	     -6.60627276	      1.66000940	      0.87623792	     -0.02906829	     -1.34161459	     -5.59658455	     -0.05333991	      1.56561114	      5.11722746	    -14.38325000	      0.00000000	     -3.05842122	     -2.40187014	      1.31468238	      1.33653072	      5.14244321	    -10.56552178	      0.00000000	     -7.35895663	      0.99354412	     -0.92496580	      9.80816348	     -9.99032679	     42.99483790	     82.98703620	     92.64659100	      7.62863243	     -7.33460375	     26.65280559	     71.34732525	     89.00596579
      0.23333330	     -1.04719581	      0.75404153	     -6.66285345	      1.65995694	      0.87590976	     -0.02902424	     -1.39141561	     -5.55072107	     -0.06188304	      1.47494301	      5.16823136	    -14.46758702	      0.00000000	     -3.10620692	     -2.42066280	      1.36549222	      1.32024014	      5.07119066	    -10.55141011	      0.00000000	     -7.32180027	      0.99868089	     -0.94738906	      9.75966736	    -10.06012808	     43.00742262	     82.96923438	     92.64666619	      7.66647710	     -7.34622954	     26.64605634	     71.34337905	     89.00073160
      0.25000000	     -1.06045416	      0.76400321	     -6.52144623	      1.65985781	      0.87579562	     -0.02890200	     -1.45626419	     -5.52307489	     -0.02883432	      1.41881047	      5.19940474	    -14.51796973	      0.00000000	     -3.10901692	     -2.43551081	      1.37182713	      1.24890001	      5.02009504	    -10.55701675	      0.00000000	     -7.30162444	      1.01731926	     -0.90262594	      9.77813874	    -10.11618840	     42.99994327	     82.96544252	     92.64511697	      7.65657392	     -7.38156710	     26.63766887	     71.32621052	     88.99602008
      0.26666670	     -1.08324446	      0.73406656	     -6.56345372	      1.65987008	      0.87610534	     -0.02847521	     -1.53173583	     -5.45734291	     -0.01355518	      1.18028457	      5.28691985	    -14.66092482	      0.00000000	     -3.15967515	     -2.48908049	      1.45565561	      1.16141755	      4.86189665	    -10.52305793	      0.00000000	     -7.24054167	      1.02561919	     -0.93277492	      9.80878772	    -10.27121748	     42.95957802	     82.96995336	     92.63915493	      7.68115831	     -7.41490017	     26.63492789	     71.30039745	     88.98624339
      0.28333330	     -1.07713718	      0.74626707	     -6.41476604	      1.65980141	      0.87649074	     -0.02818638	     -1.58010396	     -5.44063328	      0.03894653	      1.14807373	      5.28206134	    -14.67966076	      0.00000000	     -3.15865254	     -2.51042026	      1.44802631	      1.10734299	      4.80935562	    -10.53114000	      0.00000000	     -7.22448978	      1.03740886	     -0.90230054	      9.82170990	    -10.28624328	     42.95828856	     82.98290324	     92.63692568	      7.65592757	     -7.42652922	     26.64190323	     71.28550162	     88.98260313
      0.30000000	     -1.06735934	      0.76046883	     -6.40566274	      1.65972183	      0.87685987	     -0.02785479	     -1.56958013	     -5.43253997	      0.04335340	      1.12966703	      5.28263125	    -14.68374541	      0.00000000	     -3.16632906	     -2.52161512	      1.45025243	      1.10524177	      4.79910299	    -10.52972987	      0.00000000	     -7.22220340	      1.03831534	     -0.90423685	      9.82108790	    -10.29041424	     42.95814952	     82.98458845	     92.63655160	      7.65445157	     -7.42572704	     26.64394020	     71.28421989	     88.98214277
      0.31666670	     -0.77200642	      0.65862553	     -6.26479961	      1.66005940	      0.87748121	     -0.02788872	     -2.29248230	     -5.30305641	      0.76911707	      0.41713962	      4.34351799	    -16.10822671	      0.00000000	     -3.71484535	     -2.62663605	      1.90789536	      0.61949567	      3.63685527	    -11.31067469	      0.00000000	     -7.52707627	      1.09571248	     -0.84412038	      9.79042893	    -10.53427029	     43.07288376	     83.39801848	     92.42731490	      7.90356183	     -7.46194185	     27.15761447	     70.99742284	     88.72248977
